<?xml version="1.0" encoding="UTF-8"?>
<svg id="Layer_1" data-name="Layer 1" xmlns="http://www.w3.org/2000/svg" viewBox="0 0 29.35 28.08">
  <defs>
    <style>
      .cls-1 {
        fill: #faf9f9;
      }

      .cls-2 {
        fill: #009d65;
      }
    </style>
  </defs>
  <path class="cls-2" d="M13.71.02c1.95-.1,3.92.12,5.77.74,3.07,1.02,5.82,3.06,7.6,5.78,2.36,3.55,2.93,8.25,1.43,12.25-1.16,3.12-3.51,5.75-6.4,7.38-4.04,2.29-9.15,2.53-13.41.71-3.26-1.4-6.06-3.98-7.52-7.24-1.48-3.29-1.56-7.17-.24-10.52,1.06-2.75,3.04-5.11,5.5-6.71C8.6.99,11.14.17,13.71.02"/>
  <path class="cls-1" d="M20.58,8.11c.21-.2.48-.37.79-.33.37.02.61.33.86.56.45.48,1.02.86,1.38,1.41.27.57-.26,1.01-.64,1.35-3.48,3.42-6.96,6.84-10.44,10.26-.2.21-.48.38-.78.35-.37-.02-.62-.33-.87-.56-1.68-1.61-3.36-3.21-5.05-4.82-.36-.31-.36-.91-.02-1.23.48-.49.96-.97,1.46-1.44.32-.31.87-.33,1.2-.02,1.11,1.01,2.18,2.07,3.28,3.08,2.97-2.85,5.88-5.76,8.82-8.63h0Z"/>
</svg>